<?xml version="1.0" standalone="no"?>
<!DOCTYPE svg PUBLIC "-//W3C//DTD SVG 20010904//EN"
 "http://www.w3.org/TR/2001/REC-SVG-20010904/DTD/svg10.dtd">
<svg version="1.0" xmlns="http://www.w3.org/2000/svg"
 width="200.000000pt" height="200.000000pt" viewBox="0 0 200.000000 200.000000"
 preserveAspectRatio="xMidYMid meet">
<metadata>
Created by potrace 1.14, written by Peter Selinger 2001-2017
</metadata>
<g transform="translate(0.000000,200.000000) scale(0.100000,-0.100000)"
fill="#000000" stroke="none">
<path d="M0 1000 l0 -1000 1000 0 1000 0 0 1000 0 1000 -1000 0 -1000 0 0
-1000z m697 185 c27 -8 65 -25 84 -38 l34 -23 69 36 c63 32 76 35 155 35 71 0
95 -5 142 -27 111 -51 139 -120 139 -345 l0 -153 -65 0 -65 0 0 143 c0 130 -2
148 -23 187 -13 25 -37 51 -57 61 -61 33 -167 20 -213 -25 -15 -15 -17 -41
-17 -192 l0 -174 -65 0 -65 0 0 140 c0 156 -8 186 -59 235 -30 28 -38 30 -109
30 -63 0 -84 -4 -114 -23 l-38 -24 0 -179 0 -179 -70 0 -70 0 2 258 3 257 63
3 c57 3 64 1 69 -17 4 -18 8 -19 27 -9 29 16 114 36 157 37 19 1 58 -6 86 -14z
m953 -368 c14 -7 31 -25 38 -39 30 -62 -26 -123 -106 -115 -129 13 -121 166 8
167 19 0 46 -6 60 -13z"/>
</g>
</svg>
